<svg width="648" height="730" viewBox="0 0 648 730" fill="none" xmlns="http://www.w3.org/2000/svg">
<path d="M35.2422 489.513V200.691L283.724 341.598C305.381 353.879 318.764 376.854 318.764 401.751V695.126L69.4599 549.192C48.2663 536.786 35.2422 514.07 35.2422 489.513Z" stroke="#333333" stroke-width="69.1517" stroke-linejoin="round"/>
<path d="M329.137 323.549V34.7269L577.618 175.634C599.275 187.915 612.659 210.89 612.659 235.787V529.162L363.354 383.227C342.161 370.821 329.137 348.106 329.137 323.549Z" stroke="url(#paint0_linear_3894_21)" stroke-width="69.1517" stroke-linejoin="round"/>
<path d="M329.137 323.549V34.7269L577.618 175.634C599.275 187.915 612.659 210.89 612.659 235.787V529.162L363.354 383.227C342.161 370.821 329.137 348.106 329.137 323.549Z" stroke="url(#paint1_linear_3894_21)" stroke-width="69.1517" stroke-linejoin="round"/>
<path d="M311.849 370.113L609.201 204.149" stroke="#333333" stroke-width="69.1517"/>
<path d="M35.2422 529.162L332.595 363.198" stroke="url(#paint2_linear_3894_21)" stroke-width="69.1517"/>
<path d="M422.491 347.638L387.916 288.859C387.916 288.859 358.526 304.419 322.221 304.419C285.917 304.419 259.985 288.859 259.985 288.859L216.765 342.452C216.765 342.452 246.155 361.469 266.9 396.045C287.646 430.62 285.917 472.112 285.917 472.112H351.611C351.611 472.112 346.425 425.434 368.899 394.316C391.373 363.198 422.491 347.638 422.491 347.638Z" fill="#333333"/>
<defs>
<linearGradient id="paint0_linear_3894_21" x1="329.137" y1="181.674" x2="329.137" y2="401.231" gradientUnits="userSpaceOnUse">
<stop stop-color="#333333"/>
<stop offset="0.5" stop-color="#333333" stop-opacity="0"/>
</linearGradient>
<linearGradient id="paint1_linear_3894_21" x1="486.457" y1="460.01" x2="325.679" y2="368.384" gradientUnits="userSpaceOnUse">
<stop stop-color="#333333"/>
<stop offset="0.5" stop-color="#333333" stop-opacity="0"/>
</linearGradient>
<linearGradient id="paint2_linear_3894_21" x1="161.444" y1="461.739" x2="325.679" y2="363.198" gradientUnits="userSpaceOnUse">
<stop stop-color="#333333"/>
<stop offset="0.5" stop-color="#333333" stop-opacity="0"/>
</linearGradient>
</defs>
</svg>
