<svg width="2725" height="302" viewBox="0 0 2725 302" fill="none" xmlns="http://www.w3.org/2000/svg">
<path d="M29.9999 189.205V100.637L106.198 143.846C112.839 147.613 116.943 154.658 116.943 162.293V252.257L40.4929 207.506C33.9938 203.701 29.9999 196.736 29.9999 189.205Z" stroke="#333333" stroke-width="21.2056" stroke-linejoin="round"/>
<path d="M120.124 138.311V49.7432L196.322 92.9529C202.963 96.719 207.067 103.764 207.067 111.399V201.364L130.617 156.612C124.118 152.808 120.124 145.842 120.124 138.311Z" stroke="url(#paint0_linear_5479_218)" stroke-width="21.2056" stroke-linejoin="round"/>
<path d="M120.124 138.311V49.7432L196.322 92.9529C202.963 96.719 207.067 103.764 207.067 111.399V201.364L130.617 156.612C124.118 152.808 120.124 145.842 120.124 138.311Z" stroke="url(#paint1_linear_5479_218)" stroke-width="21.2056" stroke-linejoin="round"/>
<path d="M114.822 152.59L206.007 101.697" stroke="#333333" stroke-width="21.2056"/>
<path d="M29.9999 201.363L121.184 150.47" stroke="url(#paint2_linear_5479_218)" stroke-width="21.2056"/>
<path d="M148.751 145.699L138.149 127.674C138.149 127.674 129.136 132.445 118.003 132.445C106.87 132.445 98.9181 127.674 98.9181 127.674L85.6646 144.108C85.6646 144.108 94.6769 149.94 101.039 160.543C107.4 171.145 106.87 183.869 106.87 183.869H127.016C127.016 183.869 125.425 169.555 132.317 160.012C139.209 150.47 148.751 145.699 148.751 145.699Z" fill="#333333"/>
<path d="M319.828 223C317.028 223 315.628 221.467 315.628 218.4V78.4C315.628 75.8667 316.761 74.6 319.028 74.6H360.428C361.894 74.6 362.961 74.8 363.628 75.2C364.294 75.6 364.828 76.4 365.228 77.6L395.428 161.4C395.828 162.6 396.294 163.2 396.828 163.2C397.361 163.067 397.828 162.467 398.228 161.4L427.028 79.2C427.828 76.1333 429.294 74.6 431.428 74.6H474.428C476.428 74.6 477.428 75.8 477.428 78.2V218.2C477.428 221.4 475.761 223 472.428 223H446.628C445.028 223 443.894 222.667 443.228 222C442.694 221.333 442.428 220.333 442.428 219V119.4C442.428 118.467 442.161 118.067 441.628 118.2C441.228 118.2 440.894 118.667 440.628 119.6L405.628 219.8C404.828 221.933 403.428 223 401.428 223H384.828C382.561 223 381.094 221.933 380.428 219.8L345.828 121C345.428 119.8 344.961 119.267 344.428 119.4C344.028 119.533 343.828 120.133 343.828 121.2V219.4C343.828 220.733 343.561 221.667 343.028 222.2C342.628 222.733 341.694 223 340.228 223H319.828ZM551.272 225C540.738 225 531.405 222.667 523.272 218C515.272 213.333 509.005 206.933 504.472 198.8C499.938 190.533 497.672 181.133 497.672 170.6C497.672 159.533 500.005 149.867 504.672 141.6C509.338 133.2 515.738 126.667 523.872 122C532.005 117.333 541.205 115 551.472 115C562.272 115 571.672 117.4 579.672 122.2C587.672 126.867 593.872 133.4 598.272 141.8C602.805 150.067 605.072 159.6 605.072 170.4C605.072 181.067 602.805 190.533 598.272 198.8C593.738 206.933 587.405 213.333 579.272 218C571.272 222.667 561.938 225 551.272 225ZM551.472 204.6C556.405 204.6 560.538 203.333 563.872 200.8C567.205 198.133 569.672 194.2 571.272 189C573.005 183.8 573.872 177.467 573.872 170C573.872 162.133 573.005 155.667 571.272 150.6C569.672 145.4 567.205 141.467 563.872 138.8C560.538 136.133 556.405 134.8 551.472 134.8C546.672 134.8 542.538 136.133 539.072 138.8C535.738 141.467 533.205 145.4 531.472 150.6C529.738 155.667 528.872 162.133 528.872 170C528.872 177.6 529.738 184 531.472 189.2C533.205 194.267 535.738 198.133 539.072 200.8C542.538 203.333 546.672 204.6 551.472 204.6ZM695.798 223C694.731 223 693.731 222.733 692.798 222.2C691.998 221.533 691.598 220.467 691.598 219V213.4C691.598 212.467 691.331 211.933 690.798 211.8C690.265 211.667 689.598 211.933 688.798 212.6C686.665 214.6 684.265 216.6 681.598 218.6C678.931 220.467 675.798 222 672.198 223.2C668.598 224.4 664.398 225 659.598 225C651.465 225 644.265 223 637.998 219C631.731 215 626.798 209 623.198 201C619.598 192.867 617.798 182.8 617.798 170.8C617.798 159.6 619.731 149.867 623.598 141.6C627.598 133.2 632.931 126.667 639.598 122C646.265 117.333 653.598 115 661.598 115C666.931 115 671.665 115.867 675.798 117.6C679.931 119.333 683.931 122 687.798 125.6C688.865 126.4 689.665 126.733 690.198 126.6C690.865 126.333 691.198 125.467 691.198 124V78.2C691.198 75.8 692.265 74.6 694.398 74.6H718.798C720.931 74.6 721.998 75.8667 721.998 78.4V218.8C721.998 220.267 721.665 221.333 720.998 222C720.331 222.667 719.131 223 717.398 223H695.798ZM691.198 144.6C688.265 141.4 685.265 139 682.198 137.4C679.265 135.667 675.865 134.8 671.998 134.8C667.598 134.8 663.598 136.067 659.998 138.6C656.531 141 653.798 144.8 651.798 150C649.931 155.2 648.998 162 648.998 170.4C648.998 178.933 649.931 185.8 651.798 191C653.798 196.2 656.465 200 659.798 202.4C663.265 204.667 667.198 205.8 671.598 205.8C675.331 205.8 678.665 204.933 681.598 203.2C684.531 201.467 686.865 199.267 688.598 196.6C690.331 193.933 691.198 191.133 691.198 188.2V144.6ZM787.873 202.8C792.006 202.8 795.873 201.733 799.473 199.6C803.206 197.333 806.606 194.467 809.673 191V121.6C809.673 118.533 811.406 117 814.873 117H836.473C839.273 117 840.673 118.4 840.673 121.2L840.273 219.4C840.273 221.8 839.206 223 837.073 223H813.273C811.273 223 810.273 221.867 810.273 219.6V209.8C810.273 209 810.073 208.533 809.673 208.4C809.273 208.133 808.74 208.333 808.073 209C802.473 214.733 796.873 218.867 791.273 221.4C785.806 223.8 779.94 225 773.673 225C767.806 225 762.54 223.733 757.873 221.2C753.34 218.667 749.74 215 747.073 210.2C744.406 205.267 743.073 199.467 743.073 192.8V121.8C743.073 118.6 744.673 117 747.873 117H770.073C772.606 117 773.873 118.4 773.873 121.2V188.4C773.873 192.8 775.073 196.333 777.473 199C780.006 201.533 783.473 202.8 787.873 202.8ZM893.432 218.2C893.432 219.933 893.032 221.2 892.232 222C891.432 222.667 890.032 223 888.032 223H866.832C863.899 223 862.432 221.6 862.432 218.8L863.032 78.4C863.032 75.8667 864.099 74.6 866.232 74.6H890.432C892.432 74.6 893.432 75.8 893.432 78.2V218.2ZM972.757 212.8C968.624 216.533 963.957 219.533 958.758 221.8C953.691 223.933 947.824 225 941.157 225C931.024 225 923.024 222.267 917.157 216.8C911.424 211.333 908.557 204.333 908.557 195.8C908.557 188.333 910.824 181.8 915.357 176.2C920.024 170.6 926.691 166.267 935.357 163.2C944.024 160 954.424 158.267 966.557 158L973.558 157.4C974.224 157.4 974.891 157.2 975.557 156.8C976.358 156.4 976.758 155.667 976.758 154.6V150.4C976.758 145.333 975.291 141.4 972.357 138.6C969.424 135.667 965.224 134.2 959.757 134.2C955.757 134.2 951.891 135.133 948.157 137C944.557 138.733 941.491 141.8 938.957 146.2C938.424 147.133 937.891 147.733 937.357 148C936.957 148.267 936.024 148.267 934.557 148L914.557 143.4C913.757 143.133 913.157 142.733 912.757 142.2C912.491 141.533 912.757 140.2 913.557 138.2C916.891 130.333 922.624 124.533 930.757 120.8C939.024 116.933 949.157 115 961.157 115C972.091 115 980.824 116.4 987.358 119.2C994.024 122 998.824 125.933 1001.76 131C1004.69 135.933 1006.16 141.733 1006.16 148.4V218.6C1006.16 220.2 1005.89 221.333 1005.36 222C1004.82 222.667 1003.76 223 1002.16 223H981.757C980.291 223 979.224 222.467 978.557 221.4C978.024 220.333 977.624 219 977.357 217.4L977.157 213C976.757 210.6 975.291 210.533 972.757 212.8ZM976.758 175.8C976.758 173.533 975.758 172.4 973.757 172.4L968.157 172.8C964.691 172.933 961.224 173.467 957.757 174.4C954.291 175.2 951.091 176.4 948.157 178C945.357 179.467 943.091 181.4 941.357 183.8C939.624 186.067 938.757 188.733 938.757 191.8C938.757 195.8 940.157 199 942.957 201.4C945.757 203.667 949.624 204.8 954.557 204.8C957.891 204.8 960.824 204.267 963.357 203.2C966.024 202.133 968.291 200.867 970.157 199.4C972.024 197.667 973.557 195.933 974.757 194.2C976.091 192.467 976.758 190.667 976.758 188.8V175.8ZM1032.45 223C1030.99 223 1029.92 222.667 1029.25 222C1028.59 221.333 1028.25 220.333 1028.25 219V120.8C1028.25 118.267 1029.32 117 1031.45 117H1054.85C1056.99 117 1058.05 118.133 1058.05 120.4V132.2C1058.05 133 1058.32 133.533 1058.85 133.8C1059.52 133.933 1060.19 133.6 1060.85 132.8C1063.52 129.2 1066.52 126.067 1069.85 123.4C1073.32 120.733 1076.85 118.667 1080.45 117.2C1084.05 115.733 1087.45 115 1090.65 115C1095.45 115 1097.85 116.133 1097.85 118.4V141.6C1097.85 143.733 1096.85 144.6 1094.85 144.2C1092.45 143.533 1089.99 143.133 1087.45 143C1084.92 142.733 1082.72 142.6 1080.85 142.6C1078.45 142.6 1075.92 143.067 1073.25 144C1070.72 144.933 1068.39 146.267 1066.25 148C1064.12 149.733 1062.39 151.6 1061.05 153.6C1059.72 155.6 1059.05 157.733 1059.05 160V218.4C1059.05 221.467 1057.32 223 1053.85 223H1032.45ZM1120.61 223C1117.81 223 1116.41 221.467 1116.41 218.4V78.4C1116.41 75.8667 1117.54 74.6 1119.81 74.6H1161.21C1162.68 74.6 1163.74 74.8 1164.41 75.2C1165.08 75.6 1165.61 76.4 1166.01 77.6L1196.21 161.4C1196.61 162.6 1197.08 163.2 1197.61 163.2C1198.14 163.067 1198.61 162.467 1199.01 161.4L1227.81 79.2C1228.61 76.1333 1230.08 74.6 1232.21 74.6H1275.21C1277.21 74.6 1278.21 75.8 1278.21 78.2V218.2C1278.21 221.4 1276.54 223 1273.21 223H1247.41C1245.81 223 1244.68 222.667 1244.01 222C1243.48 221.333 1243.21 220.333 1243.21 219V119.4C1243.21 118.467 1242.94 118.067 1242.41 118.2C1242.01 118.2 1241.68 118.667 1241.41 119.6L1206.41 219.8C1205.61 221.933 1204.21 223 1202.21 223H1185.61C1183.34 223 1181.88 221.933 1181.21 219.8L1146.61 121C1146.21 119.8 1145.74 119.267 1145.21 119.4C1144.81 119.533 1144.61 120.133 1144.61 121.2V219.4C1144.61 220.733 1144.34 221.667 1143.81 222.2C1143.41 222.733 1142.48 223 1141.01 223H1120.61ZM1334.05 218.2C1334.05 219.933 1333.65 221.2 1332.85 222C1332.05 222.667 1330.65 223 1328.65 223H1307.65C1305.92 223 1304.72 222.667 1304.05 222C1303.52 221.333 1303.25 220.267 1303.25 218.8V120.8C1303.25 118.267 1304.32 117 1306.45 117H1331.05C1333.05 117 1334.05 118.133 1334.05 120.4V218.2ZM1334.45 99.2C1334.45 102.533 1332.65 104.2 1329.05 104.2H1307.45C1305.72 104.2 1304.52 103.8 1303.85 103C1303.32 102.2 1303.05 101.067 1303.05 99.6V78.6C1303.05 75.9333 1304.19 74.6 1306.45 74.6H1331.25C1333.39 74.6 1334.45 75.8667 1334.45 78.4V99.2ZM1360.38 223C1357.58 223 1356.18 221.667 1356.18 219V120.8C1356.18 118.267 1357.25 117 1359.38 117H1383.58C1385.58 117 1386.58 118.133 1386.58 120.4V130.2C1386.58 131 1386.78 131.533 1387.18 131.8C1387.58 132.067 1388.18 131.8 1388.98 131C1392.45 127.8 1395.92 125 1399.38 122.6C1402.85 120.2 1406.52 118.333 1410.38 117C1414.25 115.667 1418.38 115 1422.78 115C1432.52 115 1440.18 117.867 1445.78 123.6C1451.52 129.333 1454.38 137 1454.38 146.6V218.2C1454.38 221.4 1452.78 223 1449.58 223H1427.38C1426.05 223 1425.05 222.733 1424.38 222.2C1423.85 221.533 1423.58 220.467 1423.58 219V151.4C1423.58 146.867 1422.32 143.4 1419.78 141C1417.38 138.467 1413.78 137.2 1408.98 137.2C1406.18 137.2 1403.58 137.667 1401.18 138.6C1398.78 139.533 1396.45 140.933 1394.18 142.8C1391.92 144.533 1389.52 146.8 1386.98 149.6V218.4C1386.98 221.467 1385.25 223 1381.78 223H1360.38ZM1548.92 223C1547.86 223 1546.86 222.733 1545.92 222.2C1545.12 221.533 1544.72 220.467 1544.72 219V213.4C1544.72 212.467 1544.46 211.933 1543.92 211.8C1543.39 211.667 1542.72 211.933 1541.92 212.6C1539.79 214.6 1537.39 216.6 1534.72 218.6C1532.06 220.467 1528.92 222 1525.32 223.2C1521.72 224.4 1517.52 225 1512.72 225C1504.59 225 1497.39 223 1491.12 219C1484.86 215 1479.92 209 1476.32 201C1472.72 192.867 1470.92 182.8 1470.92 170.8C1470.92 159.6 1472.86 149.867 1476.72 141.6C1480.72 133.2 1486.06 126.667 1492.72 122C1499.39 117.333 1506.72 115 1514.72 115C1520.06 115 1524.79 115.867 1528.92 117.6C1533.06 119.333 1537.06 122 1540.92 125.6C1541.99 126.4 1542.79 126.733 1543.32 126.6C1543.99 126.333 1544.32 125.467 1544.32 124V78.2C1544.32 75.8 1545.39 74.6 1547.52 74.6H1571.92C1574.06 74.6 1575.12 75.8667 1575.12 78.4V218.8C1575.12 220.267 1574.79 221.333 1574.12 222C1573.46 222.667 1572.26 223 1570.52 223H1548.92ZM1544.32 144.6C1541.39 141.4 1538.39 139 1535.32 137.4C1532.39 135.667 1528.99 134.8 1525.12 134.8C1520.72 134.8 1516.72 136.067 1513.12 138.6C1509.66 141 1506.92 144.8 1504.92 150C1503.06 155.2 1502.12 162 1502.12 170.4C1502.12 178.933 1503.06 185.8 1504.92 191C1506.92 196.2 1509.59 200 1512.92 202.4C1516.39 204.667 1520.32 205.8 1524.72 205.8C1528.46 205.8 1531.79 204.933 1534.72 203.2C1537.66 201.467 1539.99 199.267 1541.72 196.6C1543.46 193.933 1544.32 191.133 1544.32 188.2V144.6Z" fill="#333333"/>
<path d="M1793.14 117.2C1793.14 126.933 1790.87 134.933 1786.34 141.2C1781.81 147.467 1775.61 152.133 1767.74 155.2C1759.87 158.133 1750.87 159.6 1740.74 159.6H1705.54C1704.34 159.6 1703.74 160.2 1703.74 161.4V220.6C1703.74 222.2 1702.94 223 1701.34 223H1690.94C1690.14 223 1689.54 222.867 1689.14 222.6C1688.87 222.2 1688.74 221.6 1688.74 220.8V77C1688.74 75.4 1689.47 74.6 1690.94 74.6H1738.74C1749.27 74.6 1758.61 76.0667 1766.74 79C1775.01 81.8 1781.47 86.3333 1786.14 92.6C1790.81 98.8667 1793.14 107.067 1793.14 117.2ZM1777.54 116.6C1777.54 109.133 1775.94 103.2 1772.74 98.8C1769.54 94.4 1765.01 91.2667 1759.14 89.4C1753.27 87.4 1746.27 86.4 1738.14 86.4H1706.14C1704.54 86.4 1703.74 87.1333 1703.74 88.6V145.2C1703.74 146.8 1704.34 147.6 1705.54 147.6H1739.54C1751.01 147.6 1760.21 145.2 1767.14 140.4C1774.07 135.467 1777.54 127.533 1777.54 116.6ZM1834.26 220C1834.26 221.2 1834.06 222 1833.66 222.4C1833.26 222.8 1832.46 223 1831.26 223H1823.66C1821.93 223 1821.06 222.2 1821.06 220.6L1821.26 77C1821.26 75.4 1821.93 74.6 1823.26 74.6H1832.26C1833.6 74.6 1834.26 75.4 1834.26 77V220ZM1929.55 209.6C1924.35 214.667 1918.75 218.533 1912.75 221.2C1906.88 223.733 1900.28 225 1892.95 225C1882.55 225 1874.35 222.4 1868.35 217.2C1862.35 211.867 1859.35 204.8 1859.35 196C1859.35 189.067 1861.28 183.133 1865.15 178.2C1869.02 173.133 1874.75 169.133 1882.35 166.2C1889.95 163.267 1899.35 161.4 1910.55 160.6L1928.35 159.2C1929.42 159.067 1930.22 158.8 1930.75 158.4C1931.42 157.867 1931.75 157.133 1931.75 156.2V150.4C1931.75 142.667 1929.35 136.533 1924.55 132C1919.75 127.467 1913.22 125.2 1904.95 125.2C1898.68 125.2 1893.02 126.667 1887.95 129.6C1882.88 132.4 1878.28 136.6 1874.15 142.2C1873.75 142.733 1873.35 143.133 1872.95 143.4C1872.68 143.533 1872.28 143.467 1871.75 143.2L1863.35 139.8C1862.95 139.533 1862.68 139.267 1862.55 139C1862.42 138.6 1862.62 138 1863.15 137.2C1867.28 130.533 1872.88 125.2 1879.95 121.2C1887.02 117.067 1895.55 115 1905.55 115C1913.95 115 1921.02 116.4 1926.75 119.2C1932.62 121.867 1937.08 125.8 1940.15 131C1943.22 136.2 1944.75 142.333 1944.75 149.4V220.4C1944.75 221.467 1944.55 222.2 1944.15 222.6C1943.75 222.867 1943.08 223 1942.15 223H1934.75C1934.08 223 1933.55 222.8 1933.15 222.4C1932.75 221.867 1932.48 221.2 1932.35 220.4L1931.95 210C1931.68 208.133 1930.88 208 1929.55 209.6ZM1931.75 171.2C1931.75 168.933 1930.82 167.933 1928.95 168.2L1913.95 169.4C1907.02 169.8 1900.95 170.667 1895.75 172C1890.68 173.333 1886.42 175.067 1882.95 177.2C1879.62 179.333 1877.02 181.867 1875.15 184.8C1873.42 187.6 1872.55 190.867 1872.55 194.6C1872.55 200.867 1874.75 205.8 1879.15 209.4C1883.55 212.867 1889.48 214.6 1896.95 214.6C1901.48 214.6 1905.88 213.8 1910.15 212.2C1914.42 210.467 1918.22 208.333 1921.55 205.8C1924.88 203 1927.42 200.133 1929.15 197.2C1930.88 194.267 1931.75 191.467 1931.75 188.8V171.2ZM1997.79 127.2C1996.73 127.2 1996.19 127.733 1996.19 128.8V196C1996.19 202.8 1997.26 207.267 1999.39 209.4C2001.53 211.533 2004.66 212.6 2008.79 212.6H2023.39C2024.06 212.6 2024.53 212.8 2024.79 213.2C2025.19 213.467 2025.39 213.933 2025.39 214.6V220C2025.39 221.067 2024.73 221.8 2023.39 222.2C2022.19 222.333 2020.39 222.467 2017.99 222.6C2015.73 222.733 2013.46 222.867 2011.19 223C2008.93 223 2007.19 223 2005.99 223C1997.73 223 1991.79 221.133 1988.19 217.4C1984.73 213.533 1982.99 207.333 1982.99 198.8V129C1982.99 127.8 1982.39 127.2 1981.19 127.2H1964.19C1962.99 127.2 1962.39 126.667 1962.39 125.6V118.6C1962.39 117.533 1962.93 117 1963.99 117H1981.79C1982.59 117 1983.06 116.467 1983.19 115.4L1985.19 83.4C1985.19 81.8 1985.79 81 1986.99 81H1994.19C1995.66 81 1996.39 81.8667 1996.39 83.6V115.4C1996.39 116.467 1996.86 117 1997.79 117H2024.19C2025.26 117 2025.79 117.533 2025.79 118.6V125.6C2025.79 126.667 2025.19 127.2 2023.99 127.2H1997.79ZM2100.39 117C2100.93 117 2101.33 117.2 2101.59 117.6C2101.86 117.867 2101.99 118.267 2101.99 118.8V125.6C2101.99 126.667 2101.39 127.2 2100.19 127.2H2075.99C2074.93 127.2 2074.39 127.733 2074.39 128.8V220.4C2074.39 222.133 2073.73 223 2072.39 223H2063.19C2061.86 223 2061.19 222.2 2061.19 220.6V128.8C2061.19 127.733 2060.79 127.2 2059.99 127.2H2038.99C2037.93 127.2 2037.39 126.667 2037.39 125.6V118.8C2037.39 118.267 2037.53 117.867 2037.79 117.6C2038.06 117.2 2038.53 117 2039.19 117H2059.59C2060.66 117 2061.19 116.4 2061.19 115.2V100C2061.19 91.6 2063.13 85.2667 2066.99 81C2070.86 76.7333 2076.99 74.6 2085.39 74.6H2100.99C2102.33 74.6 2102.99 75.2667 2102.99 76.6V82.8C2102.99 83.4667 2102.79 83.9333 2102.39 84.2C2102.13 84.4667 2101.66 84.6 2100.99 84.6H2086.19C2081.79 84.6 2078.66 85.9333 2076.79 88.6C2075.06 91.2667 2074.19 95 2074.19 99.8V115.4C2074.19 116.467 2074.73 117 2075.79 117H2100.39ZM2162.9 225C2153.03 225 2144.3 222.733 2136.7 218.2C2129.23 213.533 2123.43 207.133 2119.3 199C2115.16 190.733 2113.1 181.267 2113.1 170.6C2113.1 159.667 2115.16 150.067 2119.3 141.8C2123.56 133.4 2129.43 126.867 2136.9 122.2C2144.5 117.4 2153.23 115 2163.1 115C2173.1 115 2181.76 117.333 2189.1 122C2196.56 126.667 2202.36 133.2 2206.5 141.6C2210.63 149.867 2212.7 159.4 2212.7 170.2C2212.7 181 2210.56 190.533 2206.3 198.8C2202.16 206.933 2196.36 213.333 2188.9 218C2181.56 222.667 2172.9 225 2162.9 225ZM2163.3 214.4C2170.76 214.4 2177.16 212.6 2182.5 209C2187.83 205.4 2191.9 200.267 2194.7 193.6C2197.63 186.933 2199.1 179.133 2199.1 170.2C2199.1 161.133 2197.63 153.267 2194.7 146.6C2191.76 139.8 2187.56 134.6 2182.1 131C2176.76 127.267 2170.43 125.4 2163.1 125.4C2155.76 125.4 2149.36 127.267 2143.9 131C2138.43 134.6 2134.16 139.8 2131.1 146.6C2128.16 153.267 2126.7 161.133 2126.7 170.2C2126.7 179.133 2128.16 186.933 2131.1 193.6C2134.16 200.267 2138.43 205.4 2143.9 209C2149.36 212.6 2155.83 214.4 2163.3 214.4ZM2241.63 223C2240.83 223 2240.23 222.8 2239.83 222.4C2239.43 222 2239.23 221.4 2239.23 220.6V119.2C2239.23 117.733 2239.89 117 2241.23 117H2249.83C2251.03 117 2251.63 117.667 2251.63 119V132.2C2251.63 132.867 2251.83 133.267 2252.23 133.4C2252.63 133.533 2253.09 133.333 2253.63 132.8C2257.23 128.533 2260.76 125.133 2264.23 122.6C2267.69 119.933 2271.09 118 2274.43 116.8C2277.89 115.6 2281.36 115 2284.83 115C2289.63 115 2292.03 115.8 2292.03 117.4V126.6C2292.03 127.667 2291.49 128.133 2290.43 128C2289.49 127.867 2288.36 127.733 2287.03 127.6C2285.83 127.467 2284.36 127.4 2282.63 127.4C2279.56 127.4 2276.29 128.133 2272.83 129.6C2269.36 130.933 2266.09 132.8 2263.03 135.2C2259.96 137.6 2257.43 140.267 2255.43 143.2C2253.43 146.133 2252.43 149.133 2252.43 152.2V220.6C2252.43 222.2 2251.56 223 2249.83 223H2241.63ZM2316.04 223C2314.44 223 2313.64 222.2 2313.64 220.6V119.2C2313.64 117.733 2314.31 117 2315.64 117H2324.24C2325.58 117 2326.24 117.667 2326.24 119V130.8C2326.24 131.467 2326.38 131.933 2326.64 132.2C2326.91 132.333 2327.38 132.067 2328.04 131.4C2332.44 127.933 2336.51 125 2340.24 122.6C2343.98 120.067 2347.71 118.2 2351.44 117C2355.31 115.667 2359.51 115 2364.04 115C2372.18 115 2378.58 116.867 2383.24 120.6C2387.91 124.2 2390.98 128.133 2392.44 132.4C2392.71 132.933 2393.11 133.133 2393.64 133C2394.18 132.867 2394.71 132.533 2395.24 132C2399.78 128.4 2403.91 125.333 2407.64 122.8C2411.51 120.267 2415.38 118.333 2419.24 117C2423.11 115.667 2427.31 115 2431.84 115C2441.58 115 2449.04 117.8 2454.24 123.4C2459.58 128.867 2462.24 136.067 2462.24 145V220.4C2462.24 222.133 2461.38 223 2459.64 223H2451.24C2450.58 223 2450.04 222.8 2449.64 222.4C2449.24 222 2449.04 221.4 2449.04 220.6V148.4C2449.04 141.333 2447.38 135.867 2444.04 132C2440.84 128 2435.64 126 2428.44 126C2424.18 126 2420.11 126.8 2416.24 128.4C2412.38 129.867 2408.91 131.733 2405.84 134C2402.78 136.267 2400.04 138.4 2397.64 140.4C2396.44 141.333 2395.58 142.2 2395.04 143C2394.64 143.8 2394.44 144.933 2394.44 146.4V220.4C2394.44 222.133 2393.64 223 2392.04 223H2383.64C2382.84 223 2382.24 222.8 2381.84 222.4C2381.44 222 2381.24 221.4 2381.24 220.6V148.4C2381.24 141.333 2379.64 135.867 2376.44 132C2373.24 128 2367.98 126 2360.64 126C2354.64 126 2349.18 127.4 2344.24 130.2C2339.31 133 2333.51 137.267 2326.84 143V220.6C2326.84 222.2 2325.98 223 2324.24 223H2316.04Z" fill="#333333"/>
<defs>
<linearGradient id="paint0_linear_5479_218" x1="120.124" y1="94.8052" x2="120.124" y2="162.133" gradientUnits="userSpaceOnUse">
<stop stop-color="#333333"/>
<stop offset="0.5" stop-color="#333333" stop-opacity="0"/>
</linearGradient>
<linearGradient id="paint1_linear_5479_218" x1="168.367" y1="180.158" x2="119.063" y2="152.06" gradientUnits="userSpaceOnUse">
<stop stop-color="#333333"/>
<stop offset="0.5" stop-color="#333333" stop-opacity="0"/>
</linearGradient>
<linearGradient id="paint2_linear_5479_218" x1="68.7002" y1="180.688" x2="119.064" y2="150.47" gradientUnits="userSpaceOnUse">
<stop stop-color="#333333"/>
<stop offset="0.5" stop-color="#333333" stop-opacity="0"/>
</linearGradient>
</defs>
</svg>
