<svg width="2038" height="328" viewBox="0 0 2038 328" fill="none" xmlns="http://www.w3.org/2000/svg">
<path d="M10.6028 221.217V132.648L86.8006 175.858C93.4418 179.624 97.5459 186.67 97.5459 194.304V284.269L21.0958 239.518C14.5967 235.713 10.6028 228.747 10.6028 221.217Z" stroke="#333333" stroke-width="21.2056" stroke-linejoin="round"/>
<path d="M100.727 170.323V81.7549L176.924 124.965C183.566 128.731 187.67 135.776 187.67 143.411V233.375L111.22 188.624C104.72 184.82 100.727 177.854 100.727 170.323Z" stroke="url(#paint0_linear_5104_297)" stroke-width="21.2056" stroke-linejoin="round"/>
<path d="M100.727 170.323V81.7549L176.924 124.965C183.566 128.731 187.67 135.776 187.67 143.411V233.375L111.22 188.624C104.72 184.82 100.727 177.854 100.727 170.323Z" stroke="url(#paint1_linear_5104_297)" stroke-width="21.2056" stroke-linejoin="round"/>
<path d="M95.425 184.602L186.609 133.708" stroke="#333333" stroke-width="21.2056"/>
<path d="M10.6028 233.375L101.787 182.481" stroke="url(#paint2_linear_5104_297)" stroke-width="21.2056"/>
<path d="M129.354 177.71L118.751 159.686C118.751 159.686 109.739 164.457 98.6059 164.457C87.473 164.457 79.5209 159.686 79.5209 159.686L66.2673 176.12C66.2673 176.12 75.2797 181.951 81.6414 192.554C88.0031 203.157 87.473 215.881 87.473 215.881H107.618C107.618 215.881 106.028 201.567 112.92 192.024C119.812 182.482 129.354 177.71 129.354 177.71Z" fill="#333333"/>
<path d="M325.444 214.701C325.444 222.104 325.621 227.92 325.973 232.15C326.326 236.379 327.207 239.64 328.617 241.931C330.203 244.046 332.406 245.456 335.226 246.161C338.046 246.866 342.011 247.395 347.122 247.747V257H276.801V247.747C281.912 247.395 285.966 246.866 288.962 246.161C291.958 245.456 294.249 244.046 295.835 241.931C297.421 239.816 298.391 236.82 298.743 232.943C299.272 228.889 299.536 223.514 299.536 216.816V182.977C299.536 172.931 299.36 164.56 299.008 157.862C298.831 151.165 298.391 146.583 297.686 144.115C297.157 141.824 296.54 140.062 295.835 138.828C295.13 137.418 293.985 136.361 292.399 135.656C290.812 134.774 288.697 134.246 286.054 134.069C283.586 133.717 280.326 133.541 276.272 133.541V124.288L319.364 114.242L322.801 140.679H324.123C332.054 131.69 340.337 125.081 348.973 120.851C357.785 116.445 367.479 114.242 378.053 114.242C389.157 114.242 398.498 116.533 406.076 121.115C413.655 125.522 418.942 131.954 421.938 140.414H422.996C429.517 132.131 437.448 125.698 446.789 121.115C456.13 116.533 466.088 114.242 476.662 114.242C484.946 114.242 492.436 115.652 499.133 118.472C506.007 121.115 511.206 124.817 514.731 129.575C517.903 133.629 520.107 139.004 521.34 145.702C522.75 152.223 523.455 161.211 523.455 172.667V214.701C523.455 221.927 523.631 227.655 523.984 231.885C524.513 236.115 525.482 239.376 526.892 241.667C528.302 243.958 530.417 245.456 533.237 246.161C536.233 246.866 540.287 247.395 545.398 247.747V257H475.076V247.747C480.011 247.571 483.976 247.13 486.973 246.425C489.969 245.544 492.26 244.046 493.846 241.931C495.432 239.64 496.402 236.556 496.754 232.678C497.283 228.801 497.547 223.514 497.547 216.816V183.506C497.547 173.46 497.018 165 495.961 158.127C494.904 151.077 493.141 145.437 490.674 141.207C488.206 136.801 484.946 133.629 480.892 131.69C477.015 129.751 472.256 128.782 466.616 128.782C458.862 128.782 451.547 130.985 444.674 135.391C437.977 139.621 432.689 145.349 428.812 152.575C427.931 154.338 427.137 156.1 426.433 157.862C425.904 159.449 425.463 161.299 425.111 163.414C424.758 165.353 424.494 167.732 424.318 170.552C424.318 173.372 424.318 176.897 424.318 181.127V214.701C424.318 221.927 424.494 227.655 424.846 231.885C425.199 236.115 426.08 239.376 427.49 241.667C429.076 243.958 431.367 245.456 434.364 246.161C437.36 246.866 441.413 247.395 446.524 247.747V257H376.203V247.747C381.138 247.395 385.103 246.866 388.099 246.161C391.095 245.456 393.299 244.046 394.708 241.931C396.295 239.816 397.264 236.82 397.617 232.943C398.145 228.889 398.41 223.514 398.41 216.816V183.506C398.41 173.284 397.881 164.736 396.823 157.862C395.766 150.813 394.004 145.173 391.536 140.943C389.245 136.537 386.161 133.453 382.283 131.69C378.406 129.751 373.647 128.782 368.007 128.782C360.076 128.782 352.586 130.985 345.536 135.391C338.663 139.621 333.463 145.349 329.939 152.575C329.057 154.338 328.264 156.1 327.559 157.862C327.031 159.449 326.59 161.299 326.237 163.414C325.885 165.353 325.621 167.732 325.444 170.552C325.444 173.372 325.444 176.897 325.444 181.127V214.701ZM643.013 178.747C632.967 182.625 624.419 186.414 617.369 190.115C610.496 193.816 604.944 197.517 600.714 201.219C596.484 204.92 593.4 208.621 591.461 212.322C589.699 216.023 588.818 219.812 588.818 223.69C588.818 229.506 590.756 234.264 594.634 237.966C598.511 241.667 603.622 243.517 609.967 243.517C614.549 243.517 618.779 242.372 622.657 240.081C626.71 237.789 630.235 234.705 633.231 230.828C636.228 226.774 638.607 222.104 640.369 216.816C642.132 211.353 643.013 205.625 643.013 199.632V178.747ZM643.013 167.38V156.541C643.013 135.039 633.848 124.288 615.519 124.288C612.523 124.288 609.967 124.552 607.852 125.081C605.737 125.61 603.975 126.491 602.565 127.725C601.155 128.958 599.833 130.721 598.599 133.012C597.542 135.303 596.484 138.123 595.427 141.472C593.488 146.583 591.55 150.02 589.611 151.782C587.848 153.368 585.205 154.161 581.68 154.161C572.868 154.161 568.462 149.755 568.462 140.943C568.462 132.483 572.956 125.962 581.944 121.38C590.933 116.621 603.71 114.242 620.277 114.242C637.902 114.242 650.415 117.414 657.818 123.759C665.22 129.928 668.921 140.502 668.921 155.483V214.701C668.921 234.793 672.886 244.839 680.817 244.839C683.285 244.839 685.664 244.575 687.955 244.046C690.247 243.341 692.185 241.667 693.771 239.023L697.473 245.368C695.358 249.421 691.48 252.858 685.84 255.678C680.201 258.322 674.296 259.644 668.128 259.644C660.373 259.644 654.557 257.176 650.68 252.241C646.978 247.307 645.128 240.345 645.128 231.356H643.806C639.224 239.992 632.879 246.866 624.772 251.977C616.664 256.912 607.676 259.379 597.806 259.379C586.703 259.379 577.979 256.559 571.634 250.92C565.289 245.28 562.117 237.701 562.117 228.184C562.117 223.954 562.822 219.901 564.232 216.023C565.818 212.146 568.285 208.445 571.634 204.92C574.983 201.395 579.389 197.958 584.852 194.609C590.316 191.085 597.013 187.56 604.944 184.035L643.013 167.38ZM757.407 214.966C757.407 221.839 757.672 227.391 758.2 231.621C758.905 235.674 760.139 238.935 761.902 241.402C763.664 243.694 766.131 245.28 769.304 246.161C772.476 247.042 776.706 247.571 781.994 247.747V257H706.12V247.747C711.408 247.571 715.726 247.042 719.074 246.161C722.423 245.103 724.978 243.517 726.741 241.402C728.68 239.111 729.913 236.027 730.442 232.15C731.147 228.096 731.499 222.985 731.499 216.816V182.977C731.499 172.755 731.323 164.383 730.971 157.862C730.794 151.165 730.354 146.583 729.649 144.115C728.768 140.062 726.741 137.33 723.568 135.92C720.396 134.334 714.404 133.541 705.591 133.541V124.288L757.407 114.242V214.966ZM727.005 60.5754C727.005 55.9931 728.591 52.1157 731.764 48.9433C734.936 45.7709 738.814 44.1847 743.396 44.1847C747.978 44.1847 751.856 45.7709 755.028 48.9433C758.2 52.1157 759.787 55.9931 759.787 60.5754C759.787 65.1578 758.2 69.0352 755.028 72.2076C751.856 75.38 747.978 76.9662 743.396 76.9662C738.814 76.9662 734.936 75.38 731.764 72.2076C728.591 69.0352 727.005 65.1578 727.005 60.5754ZM879.497 178.747C869.451 182.625 860.904 186.414 853.854 190.115C846.98 193.816 841.429 197.517 837.199 201.219C832.969 204.92 829.885 208.621 827.946 212.322C826.183 216.023 825.302 219.812 825.302 223.69C825.302 229.506 827.241 234.264 831.118 237.966C834.996 241.667 840.107 243.517 846.452 243.517C851.034 243.517 855.264 242.372 859.141 240.081C863.195 237.789 866.72 234.705 869.716 230.828C872.712 226.774 875.091 222.104 876.854 216.816C878.616 211.353 879.497 205.625 879.497 199.632V178.747ZM879.497 167.38V156.541C879.497 135.039 870.333 124.288 852.003 124.288C849.007 124.288 846.452 124.552 844.337 125.081C842.222 125.61 840.459 126.491 839.049 127.725C837.639 128.958 836.317 130.721 835.084 133.012C834.026 135.303 832.969 138.123 831.911 141.472C829.973 146.583 828.034 150.02 826.095 151.782C824.333 153.368 821.689 154.161 818.164 154.161C809.352 154.161 804.946 149.755 804.946 140.943C804.946 132.483 809.44 125.962 818.429 121.38C827.417 116.621 840.195 114.242 856.762 114.242C874.386 114.242 886.9 117.414 894.302 123.759C901.704 129.928 905.405 140.502 905.405 155.483V214.701C905.405 234.793 909.371 244.839 917.302 244.839C919.769 244.839 922.149 244.575 924.44 244.046C926.731 243.341 928.67 241.667 930.256 239.023L933.957 245.368C931.842 249.421 927.965 252.858 922.325 255.678C916.685 258.322 910.781 259.644 904.612 259.644C896.857 259.644 891.041 257.176 887.164 252.241C883.463 247.307 881.612 240.345 881.612 231.356H880.29C875.708 239.992 869.363 246.866 861.256 251.977C853.149 256.912 844.16 259.379 834.291 259.379C823.187 259.379 814.463 256.559 808.118 250.92C801.774 245.28 798.601 237.701 798.601 228.184C798.601 223.954 799.306 219.901 800.716 216.023C802.302 212.146 804.77 208.445 808.118 204.92C811.467 201.395 815.873 197.958 821.337 194.609C826.8 191.085 833.498 187.56 841.429 184.035L879.497 167.38Z" fill="#333333"/>
<path d="M1213.4 134.65C1213.4 146.235 1210.73 155.864 1205.41 163.535C1200.09 171.05 1192.73 176.686 1183.34 180.443C1173.94 184.201 1163.14 186.079 1150.93 186.079H1112.42C1110.85 186.079 1110.07 186.862 1110.07 188.428V253.008C1110.07 255.669 1108.66 257 1105.84 257H1085.41C1084 257 1082.98 256.765 1082.36 256.295C1081.89 255.669 1081.65 254.73 1081.65 253.477V86.2735C1081.65 83.9251 1082.75 82.7509 1084.94 82.7509H1147.64C1160.01 82.7509 1171.13 84.5513 1180.99 88.1522C1191.01 91.753 1198.91 97.3891 1204.71 105.06C1210.5 112.732 1213.4 122.595 1213.4 134.65ZM1184.28 133.945C1184.28 126.744 1182.71 120.951 1179.58 116.567C1176.45 112.027 1171.99 108.74 1166.19 106.704C1160.56 104.669 1153.83 103.651 1146 103.651H1113.59C1111.24 103.651 1110.07 104.747 1110.07 106.939V161.656C1110.07 164.005 1110.93 165.179 1112.65 165.179H1147.64C1158.76 165.179 1167.6 162.596 1174.18 157.429C1180.91 152.263 1184.28 144.435 1184.28 133.945ZM1266.53 252.538C1266.53 254.26 1266.13 255.434 1265.35 256.061C1264.73 256.687 1263.47 257 1261.59 257H1245.63C1242.81 257 1241.4 255.748 1241.4 253.243L1241.87 86.2735C1241.87 83.9251 1242.89 82.7509 1244.92 82.7509H1263.47C1265.51 82.7509 1266.53 83.9251 1266.53 86.2735V252.538ZM1369.87 242.91C1364.39 248.233 1358.36 252.303 1351.78 255.121C1345.21 257.939 1337.77 259.348 1329.47 259.348C1317.42 259.348 1307.95 256.217 1301.06 249.955C1294.17 243.693 1290.73 235.473 1290.73 225.297C1290.73 216.686 1293.15 209.328 1298 203.222C1303.01 197.117 1310.22 192.263 1319.61 188.662C1329.16 185.062 1340.75 182.948 1354.37 182.322L1369.63 181.148C1370.57 180.991 1371.43 180.678 1372.21 180.208C1373 179.739 1373.39 178.878 1373.39 177.625V171.754C1373.39 164.083 1371.04 158.055 1366.34 153.672C1361.65 149.132 1355.23 146.861 1347.09 146.861C1340.98 146.861 1335.34 148.27 1330.18 151.088C1325.01 153.907 1320.39 158.29 1316.32 164.239C1315.85 165.022 1315.38 165.57 1314.91 165.883C1314.44 166.196 1313.58 166.196 1312.33 165.883L1296.36 161.186C1295.73 160.873 1295.27 160.482 1294.95 160.012C1294.8 159.386 1295.03 158.29 1295.66 156.725C1300.2 148.27 1306.85 141.773 1315.62 137.233C1324.54 132.536 1335.42 130.188 1348.26 130.188C1359.53 130.188 1368.77 131.832 1375.97 135.12C1383.17 138.251 1388.5 142.869 1391.94 148.975C1395.54 154.924 1397.34 161.969 1397.34 170.11V253.008C1397.34 254.573 1397.03 255.669 1396.4 256.295C1395.93 256.765 1395.07 257 1393.82 257H1377.85C1376.75 257 1375.89 256.609 1375.27 255.826C1374.64 254.886 1374.25 253.712 1374.09 252.303L1373.86 243.379C1373.39 240.875 1372.06 240.718 1369.87 242.91ZM1373.39 198.526C1373.39 195.864 1372.29 194.69 1370.1 195.003L1357.42 195.942C1351.16 196.255 1345.44 197.117 1340.28 198.526C1335.11 199.778 1330.65 201.5 1326.89 203.692C1323.29 205.884 1320.39 208.545 1318.2 211.676C1316.17 214.651 1315.15 218.174 1315.15 222.244C1315.15 228.35 1317.26 233.203 1321.49 236.804C1325.87 240.248 1331.74 241.97 1339.1 241.97C1343.8 241.97 1348.18 241.188 1352.25 239.622C1356.48 237.9 1360.16 235.786 1363.29 233.281C1366.42 230.62 1368.85 227.88 1370.57 225.062C1372.45 222.244 1373.39 219.504 1373.39 216.843V198.526ZM1464.99 150.384C1463.59 150.384 1462.88 151.167 1462.88 152.732V221.54C1462.88 228.272 1464.13 232.89 1466.64 235.395C1469.14 237.743 1472.98 238.918 1478.15 238.918H1493.17C1494.11 238.918 1494.82 239.231 1495.29 239.857C1495.76 240.327 1495.99 240.953 1495.99 241.736V251.834C1495.99 253.869 1494.82 255.2 1492.47 255.826C1490.43 256.139 1487.93 256.374 1484.96 256.53C1481.98 256.687 1479.01 256.843 1476.03 257C1473.21 257 1470.71 257 1468.52 257C1458.34 257 1450.67 254.652 1445.5 249.955C1440.49 245.102 1437.99 237.665 1437.99 227.645V153.202C1437.99 151.323 1437.21 150.384 1435.64 150.384H1418.03C1415.99 150.384 1414.97 149.445 1414.97 147.566V135.12C1414.97 133.397 1415.91 132.536 1417.79 132.536H1436.58C1437.83 132.536 1438.46 131.832 1438.46 130.423L1441.28 93.5534C1441.43 91.3616 1442.37 90.2657 1444.09 90.2657H1460.3C1462.33 90.2657 1463.35 91.5182 1463.35 94.0231V130.423C1463.35 131.832 1464.05 132.536 1465.46 132.536H1493.64C1495.52 132.536 1496.46 133.397 1496.46 135.12V147.566C1496.46 149.445 1495.37 150.384 1493.17 150.384H1464.99ZM1586.02 132.536C1587.12 132.536 1587.9 132.849 1588.37 133.476C1589 133.945 1589.31 134.65 1589.31 135.589V147.801C1589.31 149.523 1588.29 150.384 1586.26 150.384H1561.83C1560.42 150.384 1559.72 151.088 1559.72 152.498V253.243C1559.72 255.748 1558.7 257 1556.67 257H1537.65C1535.77 257 1534.83 255.904 1534.83 253.712V152.263C1534.83 151.01 1534.28 150.384 1533.18 150.384H1512.05C1510.17 150.384 1509.23 149.523 1509.23 147.801V135.589C1509.23 134.65 1509.46 133.945 1509.93 133.476C1510.4 132.849 1511.19 132.536 1512.28 132.536H1532.48C1534.04 132.536 1534.83 131.597 1534.83 129.718V113.515C1534.83 103.651 1537.41 96.0584 1542.58 90.7354C1547.74 85.4124 1555.49 82.7509 1565.83 82.7509H1586.73C1589.07 82.7509 1590.25 83.9251 1590.25 86.2735L1590.48 97.3108C1590.48 98.0936 1590.25 98.7981 1589.78 99.4244C1589.31 99.894 1588.53 100.129 1587.43 100.129H1572.4C1567.86 100.129 1564.49 101.616 1562.3 104.591C1560.27 107.409 1559.25 111.244 1559.25 116.098V130.423C1559.25 131.832 1560.03 132.536 1561.6 132.536H1586.02ZM1660.04 259.348C1647.99 259.348 1637.42 256.687 1628.34 251.364C1619.26 245.884 1612.22 238.37 1607.21 228.82C1602.2 219.113 1599.69 207.997 1599.69 195.473C1599.69 182.478 1602.27 171.128 1607.44 161.421C1612.61 151.558 1619.73 143.887 1628.81 138.407C1638.05 132.928 1648.54 130.188 1660.28 130.188C1672.49 130.188 1683.06 133.006 1691.98 138.642C1701.06 144.122 1708.11 151.793 1713.12 161.656C1718.13 171.363 1720.63 182.557 1720.63 195.238C1720.63 207.763 1718.05 218.878 1712.88 228.585C1707.87 238.135 1700.83 245.65 1691.75 251.129C1682.67 256.609 1672.1 259.348 1660.04 259.348ZM1660.51 241.736C1667.87 241.736 1674.14 239.857 1679.3 236.1C1684.47 232.342 1688.38 227.019 1691.04 220.131C1693.86 213.085 1695.27 204.631 1695.27 194.768C1695.27 184.905 1693.86 176.451 1691.04 169.406C1688.38 162.361 1684.39 156.959 1679.07 153.202C1673.9 149.288 1667.64 147.331 1660.28 147.331C1652.92 147.331 1646.58 149.288 1641.26 153.202C1636.09 156.959 1632.1 162.361 1629.28 169.406C1626.46 176.451 1625.05 184.905 1625.05 194.768C1625.05 204.631 1626.46 213.085 1629.28 220.131C1632.1 227.019 1636.09 232.342 1641.26 236.1C1646.58 239.857 1653 241.736 1660.51 241.736ZM1750.61 257C1749.35 257 1748.41 256.687 1747.79 256.061C1747.16 255.434 1746.85 254.495 1746.85 253.243V136.059C1746.85 133.711 1747.87 132.536 1749.9 132.536H1767.98C1769.86 132.536 1770.8 133.554 1770.8 135.589V150.384C1770.8 151.323 1771.04 151.871 1771.51 152.028C1772.13 152.184 1772.76 151.871 1773.38 151.088C1777.3 146.392 1781.21 142.556 1785.13 139.581C1789.2 136.45 1793.27 134.102 1797.34 132.536C1801.41 130.971 1805.48 130.188 1809.55 130.188C1815.03 130.188 1817.77 131.284 1817.77 133.476V151.793C1817.77 153.672 1816.91 154.454 1815.19 154.141C1813.31 153.672 1811.27 153.359 1809.08 153.202C1807.04 153.045 1804.93 152.967 1802.74 152.967C1799.45 152.967 1796.01 153.672 1792.41 155.081C1788.81 156.49 1785.44 158.447 1782.31 160.952C1779.33 163.3 1776.83 165.962 1774.79 168.936C1772.76 171.911 1771.74 174.964 1771.74 178.095V253.008C1771.74 255.669 1770.25 257 1767.28 257H1750.61ZM1843.71 257C1841.21 257 1839.96 255.748 1839.96 253.243V136.059C1839.96 133.711 1840.98 132.536 1843.01 132.536H1861.33C1863.21 132.536 1864.15 133.554 1864.15 135.589V148.505C1864.15 149.288 1864.38 149.836 1864.85 150.149C1865.32 150.306 1865.87 149.993 1866.49 149.21C1871.35 145.296 1875.89 141.93 1880.11 139.112C1884.34 136.137 1888.65 133.945 1893.03 132.536C1897.57 130.971 1902.42 130.188 1907.59 130.188C1916.51 130.188 1923.79 132.302 1929.43 136.529C1935.07 140.599 1938.9 145.531 1940.94 151.323C1941.25 151.95 1941.64 152.184 1942.11 152.028C1942.74 151.871 1943.36 151.48 1943.99 150.854C1948.53 146.627 1953.07 143.026 1957.61 140.051C1962.15 136.92 1966.77 134.493 1971.47 132.771C1976.16 131.049 1981.09 130.188 1986.26 130.188C1997.53 130.188 2006.3 133.476 2012.56 140.051C2018.98 146.627 2022.19 155.472 2022.19 166.588V252.773C2022.19 255.591 2020.78 257 2017.96 257H2000.59C1999.49 257 1998.63 256.765 1998 256.295C1997.53 255.669 1997.3 254.652 1997.3 253.243V171.05C1997.3 164.161 1995.58 158.76 1992.13 154.846C1988.69 150.932 1983.52 148.975 1976.63 148.975C1972.56 148.975 1968.65 149.758 1964.89 151.323C1961.13 152.889 1957.69 154.846 1954.56 157.194C1951.58 159.386 1948.92 161.578 1946.57 163.77C1945.48 164.866 1944.69 165.883 1944.23 166.823C1943.76 167.762 1943.52 169.014 1943.52 170.58V252.773C1943.52 255.591 1942.11 257 1939.29 257H1922.15C1921.05 257 1920.19 256.765 1919.57 256.295C1918.94 255.669 1918.63 254.652 1918.63 253.243V171.05C1918.63 164.161 1916.98 158.76 1913.7 154.846C1910.41 150.932 1905.16 148.975 1897.96 148.975C1892.01 148.975 1886.53 150.462 1881.52 153.437C1876.67 156.255 1871.11 160.639 1864.85 166.588V253.008C1864.85 255.669 1863.36 257 1860.39 257H1843.71Z" fill="#333333"/>
<defs>
<linearGradient id="paint0_linear_5104_297" x1="100.727" y1="126.817" x2="100.727" y2="194.145" gradientUnits="userSpaceOnUse">
<stop stop-color="#333333"/>
<stop offset="0.5" stop-color="#333333" stop-opacity="0"/>
</linearGradient>
<linearGradient id="paint1_linear_5104_297" x1="148.969" y1="212.17" x2="99.6663" y2="184.072" gradientUnits="userSpaceOnUse">
<stop stop-color="#333333"/>
<stop offset="0.5" stop-color="#333333" stop-opacity="0"/>
</linearGradient>
<linearGradient id="paint2_linear_5104_297" x1="49.3031" y1="212.699" x2="99.6665" y2="182.481" gradientUnits="userSpaceOnUse">
<stop stop-color="#333333"/>
<stop offset="0.5" stop-color="#333333" stop-opacity="0"/>
</linearGradient>
</defs>
</svg>
